<?xml version="1.0"?>
<svg xmlns="http://www.w3.org/2000/svg" viewBox="0 0 32 32"><g id="Layer_2" data-name="Layer 2">
<path d="M9.5,26.75a7.269,7.269,0,0,1-5.3457-2.35254,7.19035,7.19035,0,0,1-1.876-5.54639A7.479,7.479,0,0,1,9.83447,12.25H22.5a7.24884,7.24884,0,1,1-4.88184,12.58154,2.31465,2.31465,0,0,0-3.22412-.01123A7.181,7.181,0,0,1,9.5,26.75Zm.33447-13a5.97114,5.97114,0,0,0-6.062,5.23145,5.71062,5.71062,0,0,0,1.48731,4.40283A5.76848,5.76848,0,0,0,9.5,25.25a5.686,5.686,0,0,0,3.874-1.5293,3.84852,3.84852,0,0,1,5.26172.00879,5.73077,5.73077,0,0,0,9.48584-2.99121,5.80093,5.80093,0,0,0-1.15967-4.86523A5.73162,5.73162,0,0,0,22.5,13.75Z" fill='#D5AC4E'/>
<path d="M9.5,22.25a.7502.7502,0,0,1-.75-.75v-4a.75.75,0,0,1,1.5,0v4A.7502.7502,0,0,1,9.5,22.25Z" fill='#720E07'/>
<path d="M11.5,20.25h-4a.75.75,0,0,1,0-1.5h4a.75.75,0,0,1,0,1.5Z" fill='#720E07'/>
<circle cx="23.75" cy="17.99999" r="1.25" fill='#720E07'/>
<circle cx="20.75" cy="20.49999" r="1.25" fill='#720E07'/>
<path d="M16,13.75a.7502.7502,0,0,1-.75-.75V10A4.7554,4.7554,0,0,1,20,5.25h1a.75.75,0,0,1,0,1.5H20A3.25377,3.25377,0,0,0,16.75,10v3A.7502.7502,0,0,1,16,13.75Z" fill='#D5AC4E'/>
</g></svg>
